<?xml version="1.0" encoding="UTF-8"?>
<svg width="87px" height="177px" viewBox="0 0 87 177" version="1.1" xmlns="http://www.w3.org/2000/svg" xmlns:xlink="http://www.w3.org/1999/xlink">
    <title>fork 2</title>
    <g id="mobile-screens" stroke="none" stroke-width="1" fill="none" fill-rule="evenodd">
        <g id="Artboard" transform="translate(-106.000000, -57.000000)" fill="#FF0000">
            <g id="fork-2" transform="translate(106.000000, 57.000000)">
                <path d="M35,56.6484508 C35.0000027,58.8283049 34.2877213,60.9484567 32.9715919,62.686147 C29.5836365,67.1592767 26.5932662,70.5052596 24.0004811,72.7240957 L24,170.5 C24,174.089851 21.0898509,177 17.5,177 C13.9101491,177 11,174.089851 11,170.5 L11.0005161,72.724949 C8.4075023,70.506119 5.41680186,67.1598546 2.02841481,62.6861559 C0.712281679,60.9484677 2.66955215e-16,58.8283153 0,56.6484606 L0,3.5 C-2.36723813e-16,1.56700338 1.56700338,3.55085719e-16 3.5,0 C5.43299662,-3.55085719e-16 7,1.56700338 7,3.5 L7,41.5 C7,43.4329966 8.56700338,45 10.5,45 C12.3685634,45 13.8951264,43.5357224 13.9948211,41.6920352 L14,41.5 L14,3.5 C14,1.56700338 15.5670034,3.55085719e-16 17.5,0 C19.4329966,-3.55085719e-16 21,1.56700338 21,3.5 L21,41.5 C21,43.3685634 22.4642776,44.8951264 24.3079648,44.9948211 L24.5,45 C26.3685634,45 27.8951264,43.5357224 27.9948211,41.6920352 L28,41.5 L28,3.5 C28,1.56700338 29.5670034,3.55085719e-16 31.5,0 C33.4329966,-3.55085719e-16 35,1.56700338 35,3.5 L35,56.6484508 Z" id="Combined-Shape"></path>
                <path d="M87,171.5 C87,174.537566 84.5375661,177 81.5,177 L78.5,177 C75.4624339,177 73,174.537566 73,171.5 L73.000863,81.4492641 C68.2560897,74.382302 65,59.8187897 65,43 C65,19.2517558 69,10 78,4 C79.2220113,3.18532583 85,-1 87,1 L87,1 L87,171.5 Z" id="Combined-Shape"></path>
            </g>
        </g>
    </g>
</svg>