<?xml version="1.0" encoding="UTF-8"?>
<svg width="1024px" height="1024px" viewBox="0 0 1024 1024" version="1.1" xmlns="http://www.w3.org/2000/svg" xmlns:xlink="http://www.w3.org/1999/xlink">
    <title>appIcon</title>
    <defs>
        <linearGradient x1="4.06179962%" y1="0%" x2="92.163584%" y2="100%" id="linearGradient-1">
            <stop stop-color="#1F262B" offset="0%"></stop>
            <stop stop-color="#121D23" offset="100%"></stop>
        </linearGradient>
        <path d="M196.137218,-7.92417835e-15 L827.862782,7.92417835e-15 C896.063966,-4.60417582e-15 920.795363,7.10115925 945.728696,20.4356518 C970.66203,33.7701444 990.229856,53.3379703 1003.56435,78.2713037 C1016.89884,103.204637 1024,127.936034 1024,196.137218 L1024,827.862782 C1024,896.063966 1016.89884,920.795363 1003.56435,945.728696 C990.229856,970.66203 970.66203,990.229856 945.728696,1003.56435 C920.795363,1016.89884 896.063966,1024 827.862782,1024 L196.137218,1024 C127.936034,1024 103.204637,1016.89884 78.2713037,1003.56435 C53.3379703,990.229856 33.7701444,970.66203 20.4356518,945.728696 C7.10115925,920.795363 3.06945055e-15,896.063966 -5.28278557e-15,827.862782 L5.28278557e-15,196.137218 C-3.06945055e-15,127.936034 7.10115925,103.204637 20.4356518,78.2713037 C33.7701444,53.3379703 53.3379703,33.7701444 78.2713037,20.4356518 C103.204637,7.10115925 127.936034,4.60417582e-15 196.137218,-7.92417835e-15 Z" id="path-2"></path>
        <filter x="-1.3%" y="-1.1%" width="102.5%" height="102.5%" filterUnits="objectBoundingBox" id="filter-3">
            <feOffset dx="0" dy="2" in="SourceAlpha" result="shadowOffsetOuter1"></feOffset>
            <feGaussianBlur stdDeviation="4" in="shadowOffsetOuter1" result="shadowBlurOuter1"></feGaussianBlur>
            <feComposite in="shadowBlurOuter1" in2="SourceAlpha" operator="out" result="shadowBlurOuter1"></feComposite>
            <feColorMatrix values="0 0 0 0 0   0 0 0 0 0   0 0 0 0 0  0 0 0 0.2 0" type="matrix" in="shadowBlurOuter1"></feColorMatrix>
        </filter>
        <linearGradient x1="1.39347957%" y1="24.30737%" x2="100%" y2="90.4887367%" id="linearGradient-4">
            <stop stop-color="#47DC86" offset="0%"></stop>
            <stop stop-color="#14B8A6" offset="32.3823515%"></stop>
            <stop stop-color="#07B6D2" offset="100%"></stop>
        </linearGradient>
    </defs>
    <g id="appIcon" stroke="none" stroke-width="1" fill="none" fill-rule="evenodd">
        <g id="Rectangle-Copy-2">
            <use fill="black" fill-opacity="1" filter="url(#filter-3)" xlink:href="#path-2"></use>
            <path stroke-opacity="0.13" stroke="#FFFFFF" stroke-width="20" d="M196.137218,10 L827.862782,10 C893.231994,10 917.076994,16.4528239 941.012708,29.2537838 C964.17758,41.642493 982.357507,59.8224202 994.746216,82.9872923 C1007.54718,106.923006 1014,130.768006 1014,196.137218 L1014,196.137218 L1014,827.862782 C1014,893.231994 1007.54718,917.076994 994.746216,941.012708 C982.357507,964.17758 964.17758,982.357507 941.012708,994.746216 C917.076994,1007.54718 893.231994,1014 827.862782,1014 L827.862782,1014 L196.137218,1014 C130.768006,1014 106.923006,1007.54718 82.9872923,994.746216 C59.8224202,982.357507 41.642493,964.17758 29.2537838,941.012708 C16.4528239,917.076994 10,893.231994 10,827.862782 L10,827.862782 L10,196.137218 C10,130.768006 16.4528239,106.923006 29.2537838,82.9872923 C41.642493,59.8224202 59.8224202,41.642493 82.9872923,29.2537838 C106.923006,16.4528239 130.768006,10 196.137218,10 L196.137218,10 Z" stroke-linejoin="square" fill="url(#linearGradient-1)" fill-rule="evenodd"></path>
        </g>
        <g id="Group" opacity="0.907836187" transform="translate(511.870058, 512.388960) rotate(45.000000) translate(-511.870058, -512.388960) translate(111.870058, 152.388960)" fill="url(#linearGradient-4)">
            <path d="M493.039069,639.951298 C515.099776,639.951298 532.983513,657.835035 532.983513,679.895743 C532.983513,701.95645 515.099776,719.840187 493.039069,719.840187 L306.594624,719.840187 C284.533917,719.840187 266.65018,701.95645 266.65018,679.895743 C266.65018,657.835035 284.533917,639.951298 306.594624,639.951298 L493.039069,639.951298 Z M626.205735,480.17352 C648.266443,480.17352 666.15018,498.057257 666.15018,520.117965 C666.15018,542.178672 648.266443,560.062409 626.205735,560.062409 L173.427958,560.062409 C151.36725,560.062409 133.483513,542.178672 133.483513,520.117965 C133.483513,498.057257 151.36725,480.17352 173.427958,480.17352 L626.205735,480.17352 Z M759.372402,320.395743 C781.43311,320.395743 799.316847,338.27948 799.316847,360.340187 C799.316847,382.400895 781.43311,400.284632 759.372402,400.284632 L40.261291,400.284632 C18.2005835,400.284632 0.316846561,382.400895 0.316846561,360.340187 C0.316846561,338.27948 18.2005835,320.395743 40.261291,320.395743 L759.372402,320.395743 Z M626.205735,160.617965 C648.266443,160.617965 666.15018,178.501702 666.15018,200.562409 C666.15018,222.623117 648.266443,240.506854 626.205735,240.506854 L173.427958,240.506854 C151.36725,240.506854 133.483513,222.623117 133.483513,200.562409 C133.483513,178.501702 151.36725,160.617965 173.427958,160.617965 L626.205735,160.617965 Z M493.039069,0.840187158 C515.099776,0.840187158 532.983513,18.7239241 532.983513,40.7846316 C532.983513,62.8453391 515.099776,80.729076 493.039069,80.729076 L306.594624,80.729076 C284.533917,80.729076 266.65018,62.8453391 266.65018,40.7846316 C266.65018,18.7239241 284.533917,0.840187158 306.594624,0.840187158 L493.039069,0.840187158 Z" id="Combined-Shape"></path>
        </g>
    </g>
</svg>